<?xml version="1.0" encoding="utf-8"?>
<!-- Generator: Adobe Illustrator 16.0.3, SVG Export Plug-In . SVG Version: 6.00 Build 0)  -->
<!DOCTYPE svg PUBLIC "-//W3C//DTD SVG 1.1//EN" "http://www.w3.org/Graphics/SVG/1.1/DTD/svg11.dtd">
<svg version="1.1" id="Layer_1" xmlns="http://www.w3.org/2000/svg" xmlns:xlink="http://www.w3.org/1999/xlink" x="0px" y="0px"
	 width="255.12px" height="255.12px" viewBox="0 0 255.12 255.12" style="enable-background:new 0 0 255.12 255.12;"
	 xml:space="preserve">
<path style="fill:#FFFFFF;" d="M86.344,77.691L62.56,110.329L18.555,78.27c12.583-6.685,21.264-19.778,21.264-35.022
	c0-21.997-17.834-39.814-39.824-39.814c-21.988,0-39.806,17.818-39.806,39.814c0,15.244,8.663,28.337,21.254,35.022l-44.011,32.059
	l-23.777-32.638l33.624-24.485l-74.837-9.846l5.259-40.031l65.975,8.68l-62.693-62.701l28.553-28.55l70.277,70.272v-107.738h40.375
	V-8.969l70.277-70.272l28.544,28.55L56.324,12.01l65.975-8.68l5.26,40.031l-74.838,9.846L86.344,77.691z"/>
</svg>
